<?xml version="1.0" encoding="UTF-8"?>
<svg enable-background="new 0 0 284 63" version="1.1" viewBox="0 0 284 63" xml:space="preserve" xmlns="http://www.w3.org/2000/svg" xmlns:xlink="http://www.w3.org/1999/xlink">
	<g>
		<path d="m35 29.1c7 4.8 16.5 15 16.7 27-11.7 9.4-28.3 9.2-40-0.2 10.1-6.4 18.5-15.9 23.3-26.8z"/>
		<path d="m35 29.1c4.2-9.1 6.1-19.1 5.7-29.1 8 2.3 14.8 7.7 18.9 14.8 4.1 7.2 5.3 15.7 3.3 23.9-8.4-5.4-18-8.7-27.9-9.6z"/>
		<path d="m20.2 1.1c10.2 6.1 14.2 19.5 14.8 28-11.8-1.3-24.1 1.3-34.6 6.9-2.3-14.8 5.8-29.3 19.8-34.9z"/>
		<path d="m272.3 46.3c3 0 5.8-1.2 8.2-3.5 2.4-2.4 3.6-5.2 3.6-8.7v-3.8c0-3.5-1.2-6.4-3.7-8.7s-5.3-3.5-8.3-3.5h-10.2c-3.1 0-6 1.2-8.5 3.5s-3.8 5.2-3.8 8.7v3.9c0 3.4 1.2 6.4 3.6 8.7s5.1 3.5 8.2 3.5h10.9zm3.6-15.3v2.5c0 1.8-0.6 3.2-1.8 4.5-1.2 1.2-2.6 1.8-4.3 1.8h-6c-1.6 0-3-0.6-4.3-1.8-1.2-1.2-1.8-2.7-1.8-4.5v-2.5c0-1.8 0.6-3.4 1.8-4.5s2.6-1.8 4.3-1.8h6c1.8 0 3.2 0.6 4.3 1.8 1.3 1.2 1.8 2.6 1.8 4.5z"/>
		<path d="m228.7 31.6c0-2.1 0.5-3.8 1.5-5 0.9-1.2 2.4-1.8 4.3-1.8h11.7v-6.5h-13.4c-3.7 0-6.6 1.2-8.8 3.6s-3.4 5.5-3.4 9.5v15.1h8.1v-14.9z"/>
		<path d="m206.5 18.2-3.3 4.9c-0.8 1.2-1.6 2-2.3 2.5-0.8 0.5-1.8 0.8-3 0.8h-6.6v-19.4h-8.3v39.3h8.2v-13.3h4.7c1.9 0 3.2 0.2 4 0.7 0.7 0.5 1.4 1.5 2.2 2.8l5.3 9.8h9.2l-6.7-12.7c-1.1-2-2.5-3.1-4.4-3.3 1.8-0.4 3.1-1.4 4.1-2.9l6.1-9.2h-9.2z"/>
		<path d="m149.7 29c-2.1 0-4 0.8-5.7 2.4s-2.5 3.7-2.5 6.3c0 2.4 0.8 4.4 2.3 6.1 1.6 1.7 3.5 2.5 5.7 2.5h15.9c3.2 0 5.8-1 7.6-3.1 1.9-2.1 2.7-4.4 2.7-7.2v-8.1c0-2.8-0.9-5.1-2.7-6.9-1.8-1.9-4.6-2.8-8.4-2.8h-19.3v6.6h18.2c1.4 0 2.4 0.3 3 0.9s0.9 1.4 0.9 2.3v1h-17.7zm18.1 5.8v1.7c0 0.9-0.3 1.7-0.9 2.4-0.6 0.6-1.5 0.9-2.5 0.9h-13c-0.6 0-1.1-0.2-1.6-0.7s-0.7-1.1-0.7-1.8 0.2-1.4 0.7-1.8 1-0.6 1.6-0.6l16.4-0.1z"/>
		<path d="m113.7 46.3v-14c0-2.1 0.5-3.9 1.6-5.5 2-3 8.8-3.1 11.2-0.4 1.1 1.2 1.6 2.8 1.6 4.7v15.1h8.1v-15c0-3.8-1.1-6.9-3.2-9.4-5.4-6.1-18.5-4.7-23.1 1.5-4.4-6.5-17.8-7-23.2-1.4-2.3 2.5-3.6 5.5-3.6 9.2v15.1h8.1v-15.1c0-1.9 0.5-3.4 1.6-4.6 2.3-2.5 9.1-2.6 11.2 0.2 1 1.4 1.5 3 1.5 5.2v14.5l8.2-0.1z"/>
	</g>
</svg>
